<?xml version="1.0" encoding="UTF-8"?><svg id="Layer_1" xmlns="http://www.w3.org/2000/svg" viewBox="0 0 1080 1080"><path d="M569.55,495.64v-130.92c0-23.31-3.84-39.3-11.49-47.97-7.67-8.65-22.83-12.99-45.47-12.99-26.66,0-39.98,3.67-39.98,10.99,0,2,6.15,9.67,18.49,22.99,12.32,13.34,18.49,28.98,18.49,46.97,0,53.31-44.32,79.95-132.92,79.95-28.65,0-54.14-6.5-76.45-19.49-22.33-12.99-33.48-32.81-33.48-59.46,0-72.61,82.95-108.93,248.85-108.93,69.29,0,129.25,6.34,179.89,18.99,35.98,8,62.96,20.99,80.95,38.98,17.99,17.99,26.98,44.64,26.98,79.95v267.83c0,15.99,5.65,23.99,16.99,23.99,3.33,0,6.65-.33,9.99-1,3.33-.66,6.5-2.33,9.49-5,3-2.65,5.33-4.5,7-5.5,1.66-1,4.33-3.5,8-7.5,3.65-4,5.82-6.32,6.5-7v34.98c-35.98,41.97-87.95,62.96-155.9,62.96-31.32,0-57.46-5-78.45-14.99s-37.48-27.98-49.47-53.97c-41.97,45.97-106.61,68.96-193.88,68.96-42.65,0-79.29-9.99-109.93-29.98-30.65-19.99-45.97-50.62-45.97-91.94,0-85.95,58.29-136.92,174.89-152.91,39.3-5.33,78.61-8,117.93-8h48.97ZM569.55,619.56v-99.94h-35.98c-7.34,0-13.99,1.17-19.99,3.5-6,2.34-10.84,5-14.49,8-3.67,3-6.84,7.67-9.49,13.99-2.67,6.34-4.67,11.49-6,15.49-1.34,4-2.34,10.34-3,18.99-.67,8.67-1,14.99-1,18.99v37.98c0,12.66.16,21.49.5,26.48.33,5,1.5,13.16,3.5,24.48,2,11.34,5.82,19.49,11.49,24.49,5.65,5,13.15,7.5,22.49,7.5,12.65,0,22.99-3,30.98-8.99,8-6,13.32-15.65,15.99-28.98,2.65-13.32,4.15-22.99,4.5-28.98.33-6,.5-16.99.5-32.98Z"/><path d="M540,117.19c57.1,0,112.47,11.17,164.56,33.21,50.34,21.29,95.56,51.79,134.41,90.63,38.85,38.85,69.34,84.07,90.63,134.41,22.03,52.09,33.21,107.46,33.21,164.56s-11.17,112.47-33.21,164.56c-21.29,50.34-51.79,95.56-90.63,134.41s-84.07,69.34-134.41,90.63c-52.09,22.03-107.46,33.21-164.56,33.21s-112.47-11.17-164.56-33.21c-50.34-21.29-95.56-51.79-134.41-90.63-38.85-38.85-69.34-84.07-90.63-134.41-22.03-52.09-33.21-107.46-33.21-164.56s11.17-112.47,33.21-164.56c21.29-50.34,51.79-95.56,90.63-134.41,38.85-38.85,84.07-69.34,134.41-90.63,52.09-22.03,107.46-33.21,164.56-33.21M540,65.13c-262.26,0-474.87,212.6-474.87,474.87s212.6,474.87,474.87,474.87,474.87-212.61,474.87-474.87S802.26,65.13,540,65.13h0Z"/></svg>