<?xml version="1.0" encoding="UTF-8"?><svg id="Layer_1" xmlns="http://www.w3.org/2000/svg" viewBox="0 0 3594.14 1080"><path d="M382.46,575.28v-90.95c0-16.2-2.67-27.31-7.98-33.33-5.33-6.01-15.86-9.03-31.59-9.03-18.52,0-27.77,2.55-27.77,7.64,0,1.39,4.27,6.72,12.84,15.97,8.56,9.26,12.84,20.13,12.84,32.63,0,37.04-30.79,55.54-92.34,55.54-19.91,0-37.61-4.51-53.11-13.54-15.51-9.03-23.26-22.79-23.26-41.31,0-50.45,57.63-75.68,172.88-75.68,48.13,0,89.79,4.4,124.97,13.19,24.99,5.55,43.74,14.58,56.24,27.08s18.75,31.02,18.75,55.54v186.07c0,11.11,3.93,16.66,11.8,16.66,2.31,0,4.62-.23,6.94-.69,2.31-.46,4.51-1.62,6.6-3.47,2.08-1.84,3.7-3.12,4.86-3.82,1.15-.69,3-2.43,5.55-5.21,2.54-2.78,4.05-4.39,4.51-4.86v24.3c-25,29.16-61.1,43.74-108.31,43.74-21.76,0-39.92-3.47-54.5-10.41-14.58-6.94-26.04-19.44-34.37-37.49-29.16,31.94-74.06,47.91-134.7,47.91-29.63,0-55.09-6.94-76.37-20.83-21.3-13.89-31.94-35.17-31.94-63.88,0-59.71,40.5-95.12,121.5-106.23,27.3-3.7,54.61-5.55,81.93-5.55h34.02ZM382.46,661.37v-69.43h-25c-5.1,0-9.72.81-13.89,2.43-4.17,1.63-7.53,3.47-10.07,5.55-2.55,2.08-4.75,5.33-6.6,9.72-1.86,4.4-3.24,7.98-4.17,10.76-.93,2.78-1.63,7.18-2.08,13.19-.47,6.02-.69,10.41-.69,13.19v26.38c0,8.8.11,14.93.35,18.4.23,3.47,1.04,9.14,2.43,17.01,1.39,7.88,4.05,13.54,7.98,17.01,3.93,3.47,9.13,5.21,15.62,5.21,8.79,0,15.97-2.08,21.52-6.25,5.55-4.17,9.25-10.87,11.11-20.14,1.84-9.25,2.89-15.97,3.12-20.13.23-4.17.35-11.8.35-22.91Z"/><path d="M851.81,761.35h-245.78v-16.66h38.88v-447.83h-40.27v-16.66c25.92,0,62.49-1.62,109.7-4.86,47.21-3.23,80.07-5.09,98.59-5.55v474.9h38.88v16.66Z"/><path d="M1121.89,761.35h-245.78v-16.66h38.88v-447.83h-40.27v-16.66c25.92,0,62.49-1.62,109.7-4.86,47.21-3.23,80.07-5.09,98.59-5.55v474.9h38.88v16.66Z"/><path d="M1390.57,761.35h-245.78v-16.66h38.19v-295.08h-36.8v-16.66c26.38,0,63.64-1.27,111.78-3.82,48.13-2.54,80.07-4.05,95.81-4.51v320.07h36.8v16.66ZM1266.99,262.84c62.02,0,93.04,22.91,93.04,68.74,0,23.61-9.26,40.85-27.77,51.73-18.52,10.88-40.27,16.32-65.26,16.32s-46.76-5.44-65.26-16.32c-18.52-10.87-27.77-28.12-27.77-51.73,0-45.82,31-68.74,93.04-68.74Z"/><path d="M1625.24,632.21h-90.95c-19.44,0-29.16,6.25-29.16,18.75,0,14.35,22.22,21.52,66.65,21.52h114.56c36.56,0,66.65,9.15,90.26,27.43,23.61,18.29,35.41,45.71,35.41,82.27s-16.21,68.27-48.6,93.73c-32.4,25.45-85.17,38.19-158.3,38.19-34.71,0-64.92-2.43-90.61-7.29-25.69-4.86-44.9-11.11-57.63-18.75-12.74-7.64-21.87-15.27-27.42-22.91-5.55-7.64-8.33-15.17-8.33-22.56,0-12.04,4.97-21.52,14.93-28.47,9.95-6.94,20.13-11.23,30.55-12.84,10.41-1.63,21.63-2.2,33.67-1.74l1.39-1.39c-21.76-6.49-40.39-16.9-55.89-31.24-15.51-14.34-23.26-31.7-23.26-52.07,0-27.31,8.44-48.48,25.34-63.53,16.89-15.04,39.46-24.18,67.7-27.43v-1.39c-25-7.4-45.37-19.32-61.1-35.76-15.74-16.42-23.61-36.68-23.61-60.75,0-19.44,5.9-36.21,17.7-50.34,11.8-14.11,27.19-24.76,46.17-31.94,18.97-7.17,37.6-12.38,55.89-15.62,18.28-3.23,36.21-4.86,53.81-4.86,22.22,0,44.44,1.39,66.65,4.17,7.87-18.97,20.02-35.29,36.45-48.95,16.42-13.65,34.13-20.48,53.11-20.48,15.73,0,29.27,3.82,40.62,11.46,11.34,7.64,17.01,19.09,17.01,34.37,0,27.32-15.27,40.96-45.82,40.96-9.26,0-17.7-3.12-25.34-9.37-7.64-6.25-11.46-13.77-11.46-22.56,0-1.84.35-4.39,1.04-7.64.69-3.23,1.39-6.13,2.08-8.68.69-2.54,1.04-4.05,1.04-4.51-.93-3.23-2.55-4.86-4.86-4.86-8.8,0-17.6,4.86-26.38,14.58-8.8,9.72-14.58,19.44-17.36,29.16,30.08,9.26,54.26,21.64,72.55,37.15,18.28,15.51,27.42,36.92,27.42,64.22,0,66.65-55.32,99.98-165.94,99.98ZM1659.27,814.81c-68.51,0-114.8-3.47-138.86-10.41-4.63-1.39-9.37,3-14.23,13.19-4.86,10.18-7.29,18.28-7.29,24.3,0,34.71,32.63,52.07,97.9,52.07,12.03,0,25.22-.59,39.58-1.74,14.34-1.16,31.35-3.24,51.03-6.25,19.67-3.02,35.98-8.33,48.95-15.97,12.95-7.64,19.44-16.78,19.44-27.42,0-7.41-1.39-12.74-4.17-15.97-2.78-3.24-11.23-6.02-25.34-8.33-14.12-2.32-36.45-3.47-67-3.47ZM1643.3,586.38v-99.98c0-18.97-2.67-31.7-7.99-38.19-5.33-6.48-13.31-9.72-23.95-9.72-20.83,0-31.24,15.97-31.24,47.91v99.98c0,12.04,2.89,20.72,8.68,26.04,5.78,5.33,12.61,7.98,20.48,7.98,12.5,0,21.29-2.66,26.38-7.98,5.09-5.32,7.64-13.99,7.64-26.04Z"/><path d="M2080.01,575.28v-90.95c0-16.2-2.67-27.31-7.98-33.33-5.33-6.01-15.86-9.03-31.59-9.03-18.52,0-27.77,2.55-27.77,7.64,0,1.39,4.27,6.72,12.84,15.97,8.56,9.26,12.84,20.13,12.84,32.63,0,37.04-30.79,55.54-92.34,55.54-19.91,0-37.61-4.51-53.11-13.54-15.51-9.03-23.26-22.79-23.26-41.31,0-50.45,57.63-75.68,172.88-75.68,48.13,0,89.79,4.4,124.97,13.19,24.99,5.55,43.74,14.58,56.24,27.08s18.75,31.02,18.75,55.54v186.07c0,11.11,3.93,16.66,11.8,16.66,2.31,0,4.62-.23,6.94-.69,2.31-.46,4.51-1.62,6.6-3.47,2.08-1.84,3.7-3.12,4.86-3.82,1.15-.69,3-2.43,5.55-5.21,2.54-2.78,4.05-4.39,4.51-4.86v24.3c-25,29.16-61.1,43.74-108.31,43.74-21.76,0-39.92-3.47-54.5-10.41-14.58-6.94-26.04-19.44-34.37-37.49-29.16,31.94-74.06,47.91-134.7,47.91-29.63,0-55.09-6.94-76.37-20.83-21.3-13.89-31.94-35.17-31.94-63.88,0-59.71,40.5-95.12,121.5-106.23,27.3-3.7,54.61-5.55,81.93-5.55h34.02ZM2080.01,661.37v-69.43h-25c-5.1,0-9.72.81-13.89,2.43-4.17,1.63-7.53,3.47-10.07,5.55-2.55,2.08-4.75,5.33-6.6,9.72-1.86,4.4-3.24,7.98-4.17,10.76-.93,2.78-1.63,7.18-2.08,13.19-.47,6.02-.69,10.41-.69,13.19v26.38c0,8.8.11,14.93.35,18.4.23,3.47,1.04,9.14,2.43,17.01,1.39,7.88,4.05,13.54,7.98,17.01,3.93,3.47,9.13,5.21,15.62,5.21,8.79,0,15.97-2.08,21.52-6.25,5.55-4.17,9.25-10.87,11.11-20.14,1.84-9.25,2.89-15.97,3.12-20.13.23-4.17.35-11.8.35-22.91Z"/><path d="M2491.72,310.75h13.19v122.2h78.46v16.66h-78.46v245.09c0,18.05,2.78,28.93,8.33,32.63,2.78,1.86,6.48,2.78,11.11,2.78,10.64,0,20.13-5.43,28.47-16.32,8.33-10.87,14.11-21.98,17.36-33.33,3.23-11.34,5.55-22.79,6.94-34.37h15.28c-3.24,46.29-17.6,78.8-43.05,97.55-25.46,18.75-62.03,28.12-109.7,28.12-41.66,0-69.55-7.64-83.66-22.91-14.12-15.27-21.18-45.58-21.18-90.95v-208.29h-40.96v-16.66c41.19,0,78.68-10.99,112.48-32.98,33.78-21.98,62.25-51.73,85.4-89.22Z"/><path d="M2829.84,423.22c60.17,0,109.01,13.19,146.5,39.58,20.83,14.35,37.6,33.45,50.34,57.28,12.73,23.84,19.09,48.25,19.09,73.25,0,54.16-20.83,98.83-62.49,134-35.18,29.63-86.33,44.44-153.44,44.44s-118.27-14.81-153.44-44.44c-41.66-35.17-62.49-79.84-62.49-134,0-24.99,6.36-49.4,19.09-73.25,12.73-23.83,29.51-42.93,50.34-57.28,37.49-26.38,86.32-39.58,146.5-39.58ZM2795.12,492.65v208.29c0,7.88.11,13.43.35,16.66.23,3.24.8,7.88,1.74,13.89.92,6.02,2.54,10.31,4.86,12.85,2.31,2.55,5.78,4.98,10.42,7.29,4.62,2.32,10.41,3.47,17.36,3.47,5.09,0,9.6-.46,13.54-1.39,3.93-.92,7.05-2.54,9.37-4.86,2.31-2.31,4.27-4.27,5.9-5.9,1.62-1.62,2.66-4.62,3.12-9.03.46-4.39.8-7.64,1.04-9.72.23-2.08.23-6.01,0-11.8-.24-5.78-.35-9.6-.35-11.46v-208.29c0-8.33-.24-14.69-.69-19.09-.47-4.39-1.63-9.72-3.47-15.97-1.86-6.25-5.1-10.76-9.72-13.54-4.63-2.78-10.88-4.17-18.75-4.17-10.19,0-17.94,3.02-23.26,9.03-5.33,6.02-8.57,12.27-9.72,18.75-1.16,6.49-1.74,14.82-1.74,25Z"/><path d="M3110.33,449.61h-36.8v-16.66c25.45,0,61.55-1.27,108.31-3.82,46.75-2.54,77.52-4.05,92.34-4.51v70.12h1.39c25-45.82,62.25-68.74,111.78-68.74,24.53,0,45.59,6.94,63.18,20.83,17.59,13.89,26.38,32.63,26.38,56.24s-7.53,43.63-22.56,58.67-34.61,22.57-58.67,22.57-41.9-6.94-56.24-20.83c-14.35-13.89-21.52-32.39-21.52-55.54,0-11.56,1.39-22.45,4.17-32.63-4.63-7.4-10.76-6.13-18.4,3.82-7.64,9.96-12.62,18.4-14.93,25.34-1.85,5.1-3.36,10.19-4.51,15.27-1.16,5.1-1.97,10.88-2.43,17.36-.47,6.49-.69,11.23-.69,14.23v193.36h49.29v16.66h-256.89v-16.66h36.8v-295.08Z"/><path d="M1473.17,319.54c-2.37-.68-4.4-1.82-6.1-3.43-1.7-1.61-3.01-3.7-3.94-6.29-.93-2.58-1.4-5.78-1.4-9.59v-33.91h-8.89v-5.21c3.05,0,5.95-.36,8.7-1.08,2.75-.72,5.14-1.67,7.18-2.86,2.03-1.18,3.7-2.54,5.02-4.06,1.31-1.52,2.1-3.09,2.35-4.7h5.46v12.7h13.97v5.21h-14.1v35.31c0,2.12.13,3.96.38,5.53.25,1.57.64,2.86,1.14,3.87s1.14,1.78,1.91,2.29c.76.51,1.61.76,2.54.76,1.69,0,3.11-.63,4.26-1.91,1.14-1.27,2.14-2.75,2.98-4.45l4.7,1.91c-.76,1.78-1.65,3.35-2.67,4.7-1.02,1.36-2.22,2.5-3.62,3.43-1.4.93-3.07,1.63-5.02,2.1-1.95.46-4.28.7-6.99.7-2.88,0-5.51-.34-7.88-1.02Z"/><path d="M1501.88,318.65v-5.21h9.65v-78.5h-9.65v-5.21h10.67c3.47,0,6.37-.06,8.7-.19,2.33-.13,3.79-.65,4.38-1.59h5.59v39.88l.25.38c.76-1.18,1.76-2.31,2.98-3.37,1.23-1.06,2.6-2.01,4.13-2.86,1.52-.85,3.18-1.5,4.95-1.97,1.78-.46,3.68-.7,5.72-.7,3.3,0,6.31.4,9.02,1.21,2.71.81,5.06,2.14,7.05,4,1.99,1.86,3.54,4.3,4.64,7.3,1.1,3.01,1.65,6.75,1.65,11.24v30.36h9.02v5.21h-35.56v-5.21h6.86v-30.36c0-2.62-.08-4.97-.25-7.05-.17-2.07-.55-3.85-1.14-5.33-.59-1.48-1.42-2.62-2.48-3.43-1.06-.8-2.52-1.21-4.38-1.21s-3.45.49-5.02,1.46c-1.57.97-2.92,2.2-4.06,3.68-1.14,1.48-1.99,3.09-2.54,4.83-.55,1.74-.83,3.41-.83,5.02v32.39h6.99v5.21h-36.33Z"/><path d="M1605.14,318.59c-4.06-1.31-7.62-3.26-10.67-5.84-3.05-2.58-5.46-5.76-7.24-9.53-1.78-3.77-2.67-8.19-2.67-13.27s.91-9.53,2.73-13.34c1.82-3.81,4.25-7.03,7.3-9.65,3.05-2.62,6.52-4.55,10.42-5.78,3.89-1.23,7.92-1.84,12.07-1.84,3.89,0,7.58.57,11.05,1.71,3.47,1.14,6.5,2.88,9.08,5.21,2.58,2.33,4.64,5.31,6.16,8.95,1.52,3.64,2.29,8,2.29,13.08h-40.26v2.92c0,3.73.25,7.09.76,10.1.51,3.01,1.29,5.55,2.35,7.62,1.06,2.08,2.48,3.68,4.25,4.83s4.11,1.71,6.99,1.71c5.42,0,9.89-1.25,13.4-3.75,3.51-2.5,5.99-5.53,7.43-9.08l4.83,1.78c-.85,2.2-2.03,4.3-3.56,6.29-1.52,1.99-3.41,3.71-5.65,5.14-2.24,1.44-4.87,2.58-7.88,3.43-3.01.85-6.41,1.27-10.22,1.27-4.57,0-8.89-.66-12.96-1.97ZM1626.36,283.47c0-3.05-.19-5.76-.57-8.13-.38-2.37-.93-4.36-1.65-5.97-.72-1.61-1.71-2.81-2.99-3.62-1.27-.8-2.75-1.21-4.45-1.21-1.86,0-3.47.4-4.83,1.21-1.36.81-2.48,1.97-3.37,3.49-.89,1.52-1.57,3.49-2.03,5.91-.47,2.41-.78,5.19-.95,8.32h20.83Z"/><path d="M1692.78,318.65v-5.21h9.4v-47.12h-9.4v-5.21h15.5c1.44,0,2.69-.06,3.75-.19,1.06-.13,1.99-.32,2.79-.57.8-.25,1.42-.59,1.84-1.02h5.21v54.11h9.02v5.21h-38.11ZM1704.98,246.69c-1.86-1.65-2.79-3.96-2.79-6.92s.93-5.14,2.79-6.8c1.86-1.65,4.02-2.48,6.48-2.48,2.29,0,4.4.85,6.35,2.54,1.95,1.69,2.92,4.02,2.92,6.99,0,2.79-.97,5.02-2.92,6.67-1.95,1.65-4.11,2.48-6.48,2.48s-4.49-.83-6.35-2.48Z"/><path d="M1734.57,318.65v-5.21h9.4v-47.12h-9.4v-5.21h10.67c3.3,0,6.16-.06,8.57-.19,2.41-.13,3.92-.65,4.51-1.59h5.33v8.64l.25.38c1.95-2.71,4.47-4.89,7.56-6.54,3.09-1.65,6.54-2.48,10.35-2.48,3.13,0,6.08.4,8.83,1.21,2.75.81,5.16,2.12,7.24,3.94,2.07,1.82,3.66,4.24,4.76,7.24,1.1,3.01,1.65,6.71,1.65,11.11v30.61h9.02v5.21h-35.82v-5.21h7.24v-30.61c0-2.54-.13-4.83-.38-6.86-.25-2.03-.7-3.79-1.33-5.27-.63-1.48-1.5-2.62-2.6-3.43-1.1-.8-2.5-1.21-4.19-1.21-1.86,0-3.56.49-5.08,1.46-1.52.97-2.82,2.2-3.87,3.68-1.06,1.48-1.93,3.11-2.6,4.89-.68,1.78-1.02,3.47-1.02,5.08v32.26h7.11v5.21h-36.2Z"/><path d="M1833.27,318.21c-3.47-1.57-6.39-3.75-8.76-6.54-2.37-2.79-4.21-6.05-5.53-9.78-1.31-3.73-1.97-7.7-1.97-11.94s.66-7.96,1.97-11.69c1.31-3.73,3.15-6.99,5.53-9.78,2.37-2.79,5.29-5.02,8.76-6.67,3.47-1.65,7.32-2.48,11.56-2.48s7.45.85,10.16,2.54c2.71,1.7,5,3.81,6.86,6.35l.25-.38v-32.9h-9.91v-5.21h11.3c3.3,0,6.1-.06,8.38-.19,2.29-.13,3.73-.65,4.32-1.59h5.46v85.74h9.53v4.95h-9.02c-1.69,0-3.35.02-4.95.06-1.61.04-3.05.13-4.32.25-1.27.13-2.39.32-3.37.57-.97.25-1.63.59-1.97,1.02h-5.46v-8.51l-.38-.25c-.68,1.1-1.55,2.16-2.6,3.18-1.06,1.02-2.29,1.95-3.68,2.79-1.4.85-2.98,1.52-4.76,2.03-1.78.51-3.77.76-5.97.76-4.15,0-7.96-.78-11.43-2.35ZM1852.51,314.08c1.14-.51,2.24-1.23,3.3-2.16,1.06-.93,1.97-2.01,2.73-3.24.76-1.23,1.35-2.52,1.78-3.87.51-1.44.93-2.96,1.27-4.57.34-1.61.51-3.85.51-6.73v-8.76c0-1.1-.04-2.12-.13-3.05-.09-.93-.19-1.78-.32-2.54-.13-.76-.28-1.46-.45-2.1-.17-.63-.38-1.16-.63-1.59-.59-1.52-1.23-2.88-1.91-4.06-.68-1.18-1.52-2.24-2.54-3.18-1.02-.93-2.14-1.69-3.37-2.29-1.23-.59-2.56-.89-4-.89-2.54,0-4.51.7-5.91,2.1-1.4,1.4-2.46,3.24-3.18,5.53-.72,2.29-1.21,4.93-1.46,7.94-.25,3.01-.38,6.16-.38,9.46,0,3.05.13,6.08.38,9.08.25,3.01.74,5.67,1.46,8,.72,2.33,1.8,4.19,3.24,5.59,1.44,1.4,3.43,2.1,5.97,2.1,1.27,0,2.48-.25,3.62-.76Z"/><path d="M1915.7,318.59c-4.06-1.31-7.62-3.26-10.67-5.84-3.05-2.58-5.46-5.76-7.24-9.53-1.78-3.77-2.67-8.19-2.67-13.27s.91-9.53,2.73-13.34c1.82-3.81,4.25-7.03,7.3-9.65,3.05-2.62,6.52-4.55,10.42-5.78,3.89-1.23,7.92-1.84,12.07-1.84,3.89,0,7.58.57,11.05,1.71,3.47,1.14,6.5,2.88,9.08,5.21,2.58,2.33,4.64,5.31,6.16,8.95,1.52,3.64,2.29,8,2.29,13.08h-40.26v2.92c0,3.73.25,7.09.76,10.1.51,3.01,1.29,5.55,2.35,7.62,1.06,2.08,2.48,3.68,4.25,4.83s4.11,1.71,6.99,1.71c5.42,0,9.89-1.25,13.4-3.75,3.51-2.5,5.99-5.53,7.43-9.08l4.83,1.78c-.85,2.2-2.03,4.3-3.56,6.29-1.52,1.99-3.41,3.71-5.65,5.14-2.24,1.44-4.87,2.58-7.88,3.43-3.01.85-6.41,1.27-10.22,1.27-4.57,0-8.89-.66-12.96-1.97ZM1936.91,283.47c0-3.05-.19-5.76-.57-8.13-.38-2.37-.93-4.36-1.65-5.97-.72-1.61-1.71-2.81-2.99-3.62-1.27-.8-2.75-1.21-4.45-1.21-1.86,0-3.47.4-4.83,1.21-1.36.81-2.48,1.97-3.37,3.49-.89,1.52-1.57,3.49-2.03,5.91-.47,2.41-.78,5.19-.95,8.32h20.83Z"/><path d="M1961.3,350.4v-5.21h9.4v-78.75h-9.4v-5.08h8.89c1.69,0,3.37-.02,5.02-.06,1.65-.04,3.13-.13,4.45-.25,1.31-.13,2.46-.34,3.43-.64.97-.3,1.63-.65,1.97-1.08h5.33v8.64l.38.25c.68-1.1,1.57-2.18,2.67-3.24,1.1-1.06,2.35-1.99,3.75-2.79,1.4-.8,2.96-1.48,4.7-2.03,1.73-.55,3.7-.83,5.91-.83,4.15,0,7.96.76,11.43,2.29,3.47,1.52,6.41,3.64,8.83,6.35,2.41,2.71,4.28,5.89,5.59,9.53,1.31,3.64,1.97,7.54,1.97,11.69s-.68,8.28-2.03,12.13c-1.36,3.85-3.2,7.18-5.53,9.97-2.33,2.79-5.23,5.04-8.7,6.73-3.47,1.69-7.33,2.54-11.56,2.54s-7.86-.89-10.61-2.67c-2.75-1.78-4.93-3.85-6.54-6.22l-.25.38v33.15h10.03v5.21h-39.12ZM2009.31,312.87c1.44-1.31,2.54-3.13,3.3-5.46.76-2.33,1.29-5.04,1.59-8.13.3-3.09.44-6.46.44-10.1s-.13-6.67-.38-9.59-.76-5.46-1.52-7.62c-.76-2.16-1.84-3.85-3.24-5.08-1.4-1.23-3.28-1.84-5.65-1.84-1.36,0-2.6.25-3.75.76-1.14.51-2.22,1.25-3.24,2.22-1.02.97-1.95,2.05-2.79,3.24-.85,1.19-1.57,2.5-2.16,3.94-.17.76-.36,1.46-.57,2.1-.21.63-.38,1.33-.51,2.1s-.23,1.65-.32,2.67c-.09,1.02-.13,2.2-.13,3.56v9.65c0,1.1.04,2.12.13,3.05.08.93.21,1.82.38,2.67.17.85.36,1.63.57,2.35.21.72.45,1.38.7,1.97.59,1.36,1.29,2.6,2.1,3.75.8,1.14,1.69,2.12,2.67,2.92.97.81,2.03,1.48,3.18,2.03,1.14.55,2.39.83,3.75.83,2.2,0,4.02-.65,5.46-1.97Z"/><path d="M2063.55,318.59c-4.06-1.31-7.62-3.26-10.67-5.84-3.05-2.58-5.46-5.76-7.24-9.53-1.78-3.77-2.67-8.19-2.67-13.27s.91-9.53,2.73-13.34c1.82-3.81,4.25-7.03,7.3-9.65,3.05-2.62,6.52-4.55,10.42-5.78,3.89-1.23,7.92-1.84,12.07-1.84,3.89,0,7.58.57,11.05,1.71,3.47,1.14,6.5,2.88,9.08,5.21,2.58,2.33,4.64,5.31,6.16,8.95,1.52,3.64,2.29,8,2.29,13.08h-40.26v2.92c0,3.73.25,7.09.76,10.1.51,3.01,1.29,5.55,2.35,7.62,1.06,2.08,2.48,3.68,4.25,4.83s4.11,1.71,6.99,1.71c5.42,0,9.89-1.25,13.4-3.75,3.51-2.5,5.99-5.53,7.43-9.08l4.83,1.78c-.85,2.2-2.03,4.3-3.56,6.29-1.52,1.99-3.41,3.71-5.65,5.14-2.24,1.44-4.87,2.58-7.88,3.43-3.01.85-6.41,1.27-10.22,1.27-4.57,0-8.89-.66-12.96-1.97ZM2084.76,283.47c0-3.05-.19-5.76-.57-8.13-.38-2.37-.93-4.36-1.65-5.97-.72-1.61-1.71-2.81-2.99-3.62-1.27-.8-2.75-1.21-4.45-1.21-1.86,0-3.47.4-4.83,1.21-1.36.81-2.48,1.97-3.37,3.49-.89,1.52-1.57,3.49-2.03,5.91-.47,2.41-.78,5.19-.95,8.32h20.83Z"/><path d="M2110.42,318.65v-5.21h9.4v-47.12h-9.4v-5.21h10.67c3.3,0,6.16-.06,8.57-.19,2.41-.13,3.92-.65,4.51-1.59h5.33v8.64l.25.38c1.95-2.71,4.47-4.89,7.56-6.54,3.09-1.65,6.54-2.48,10.35-2.48,3.13,0,6.08.4,8.83,1.21,2.75.81,5.16,2.12,7.24,3.94,2.07,1.82,3.66,4.24,4.76,7.24,1.1,3.01,1.65,6.71,1.65,11.11v30.61h9.02v5.21h-35.82v-5.21h7.24v-30.61c0-2.54-.13-4.83-.38-6.86-.25-2.03-.7-3.79-1.33-5.27-.63-1.48-1.5-2.62-2.6-3.43-1.1-.8-2.5-1.21-4.19-1.21-1.86,0-3.56.49-5.08,1.46-1.52.97-2.82,2.2-3.87,3.68-1.06,1.48-1.93,3.11-2.6,4.89-.68,1.78-1.02,3.47-1.02,5.08v32.26h7.11v5.21h-36.2Z"/><path d="M2209.11,318.21c-3.47-1.57-6.39-3.75-8.76-6.54-2.37-2.79-4.21-6.05-5.53-9.78-1.31-3.73-1.97-7.7-1.97-11.94s.66-7.96,1.97-11.69c1.31-3.73,3.15-6.99,5.53-9.78,2.37-2.79,5.29-5.02,8.76-6.67,3.47-1.65,7.32-2.48,11.56-2.48s7.45.85,10.16,2.54c2.71,1.7,5,3.81,6.86,6.35l.25-.38v-32.9h-9.91v-5.21h11.3c3.3,0,6.1-.06,8.38-.19,2.29-.13,3.73-.65,4.32-1.59h5.46v85.74h9.53v4.95h-9.02c-1.69,0-3.35.02-4.95.06-1.61.04-3.05.13-4.32.25-1.27.13-2.39.32-3.37.57-.97.25-1.63.59-1.97,1.02h-5.46v-8.51l-.38-.25c-.68,1.1-1.55,2.16-2.6,3.18-1.06,1.02-2.29,1.95-3.68,2.79-1.4.85-2.98,1.52-4.76,2.03-1.78.51-3.77.76-5.97.76-4.15,0-7.96-.78-11.43-2.35ZM2228.35,314.08c1.14-.51,2.24-1.23,3.3-2.16,1.06-.93,1.97-2.01,2.73-3.24.76-1.23,1.35-2.52,1.78-3.87.51-1.44.93-2.96,1.27-4.57.34-1.61.51-3.85.51-6.73v-8.76c0-1.1-.04-2.12-.13-3.05-.09-.93-.19-1.78-.32-2.54-.13-.76-.28-1.46-.45-2.1-.17-.63-.38-1.16-.63-1.59-.59-1.52-1.23-2.88-1.91-4.06-.68-1.18-1.52-2.24-2.54-3.18-1.02-.93-2.14-1.69-3.37-2.29-1.23-.59-2.56-.89-4-.89-2.54,0-4.51.7-5.91,2.1-1.4,1.4-2.46,3.24-3.18,5.53-.72,2.29-1.21,4.93-1.46,7.94-.25,3.01-.38,6.16-.38,9.46,0,3.05.13,6.08.38,9.08.25,3.01.74,5.67,1.46,8,.72,2.33,1.8,4.19,3.24,5.59,1.44,1.4,3.43,2.1,5.97,2.1,1.27,0,2.48-.25,3.62-.76Z"/><path d="M2291.54,318.59c-4.06-1.31-7.62-3.26-10.67-5.84-3.05-2.58-5.46-5.76-7.24-9.53-1.78-3.77-2.67-8.19-2.67-13.27s.91-9.53,2.73-13.34c1.82-3.81,4.25-7.03,7.3-9.65,3.05-2.62,6.52-4.55,10.42-5.78,3.89-1.23,7.92-1.84,12.07-1.84,3.89,0,7.58.57,11.05,1.71,3.47,1.14,6.5,2.88,9.08,5.21,2.58,2.33,4.64,5.31,6.16,8.95,1.52,3.64,2.29,8,2.29,13.08h-40.26v2.92c0,3.73.25,7.09.76,10.1.51,3.01,1.29,5.55,2.35,7.62,1.06,2.08,2.48,3.68,4.25,4.83s4.11,1.71,6.99,1.71c5.42,0,9.89-1.25,13.4-3.75,3.51-2.5,5.99-5.53,7.43-9.08l4.83,1.78c-.85,2.2-2.03,4.3-3.56,6.29-1.52,1.99-3.41,3.71-5.65,5.14-2.24,1.44-4.87,2.58-7.88,3.43-3.01.85-6.41,1.27-10.22,1.27-4.57,0-8.89-.66-12.96-1.97ZM2312.76,283.47c0-3.05-.19-5.76-.57-8.13-.38-2.37-.93-4.36-1.65-5.97-.72-1.61-1.71-2.81-2.99-3.62-1.27-.8-2.75-1.21-4.45-1.21-1.86,0-3.47.4-4.83,1.21-1.36.81-2.48,1.97-3.37,3.49-.89,1.52-1.57,3.49-2.03,5.91-.47,2.41-.78,5.19-.95,8.32h20.83Z"/><path d="M2338.41,318.65v-5.21h9.4v-47.12h-9.4v-5.21h10.67c3.3,0,6.16-.06,8.57-.19,2.41-.13,3.92-.65,4.51-1.59h5.33v8.64l.25.38c1.95-2.71,4.47-4.89,7.56-6.54,3.09-1.65,6.54-2.48,10.35-2.48,3.13,0,6.08.4,8.83,1.21,2.75.81,5.16,2.12,7.24,3.94,2.07,1.82,3.66,4.24,4.76,7.24,1.1,3.01,1.65,6.71,1.65,11.11v30.61h9.02v5.21h-35.82v-5.21h7.24v-30.61c0-2.54-.13-4.83-.38-6.86-.25-2.03-.7-3.79-1.33-5.27-.63-1.48-1.5-2.62-2.6-3.43-1.1-.8-2.5-1.21-4.19-1.21-1.86,0-3.56.49-5.08,1.46-1.52.97-2.82,2.2-3.87,3.68-1.06,1.48-1.93,3.11-2.6,4.89-.68,1.78-1.02,3.47-1.02,5.08v32.26h7.11v5.21h-36.2Z"/><path d="M2438.63,319.54c-2.37-.68-4.4-1.82-6.1-3.43-1.7-1.61-3.01-3.7-3.94-6.29-.93-2.58-1.4-5.78-1.4-9.59v-33.91h-8.89v-5.21c3.05,0,5.95-.36,8.7-1.08,2.75-.72,5.14-1.67,7.18-2.86,2.03-1.18,3.7-2.54,5.02-4.06,1.31-1.52,2.1-3.09,2.35-4.7h5.46v12.7h13.97v5.21h-14.1v35.31c0,2.12.13,3.96.38,5.53.25,1.57.64,2.86,1.14,3.87s1.14,1.78,1.91,2.29c.76.51,1.61.76,2.54.76,1.69,0,3.11-.63,4.26-1.91,1.14-1.27,2.14-2.75,2.98-4.45l4.7,1.91c-.76,1.78-1.65,3.35-2.67,4.7-1.02,1.36-2.22,2.5-3.62,3.43-1.4.93-3.07,1.63-5.02,2.1-1.95.46-4.28.7-6.99.7-2.88,0-5.51-.34-7.88-1.02Z"/><path d="M2525,318.65v-5.21h9.4v-47.12h-9.4v-5.21h9.4c0-5.08.76-9.63,2.29-13.65,1.52-4.02,3.6-7.49,6.22-10.42,2.62-2.92,5.74-5.19,9.34-6.8,3.6-1.61,7.39-2.41,11.37-2.41,3.22,0,5.91.51,8.07,1.52s3.87,2.33,5.14,3.94c2.12-.59,3.92-1.46,5.4-2.6,1.48-1.14,2.48-2.05,2.99-2.73h5.59v85.48h9.15v5.21h-35.31v-5.21h6.61l-.38-63.64c-2.2-.17-4-.93-5.4-2.29-1.4-1.35-2.1-3.05-2.1-5.08,0-1.86.51-3.45,1.52-4.76,1.02-1.31,2.12-2.14,3.3-2.48-.42-.76-1.1-1.33-2.03-1.71-.93-.38-1.91-.57-2.92-.57-3.05,0-5.33,1.82-6.86,5.46-1.52,3.64-2.29,9.44-2.29,17.4v5.33h9.4v5.21h-9.4v47.12h6.6v5.21h-35.69Z"/><path d="M2623.76,318.33c-4.11-1.48-7.62-3.56-10.54-6.22-2.92-2.67-5.23-5.88-6.92-9.65-1.7-3.77-2.54-7.9-2.54-12.38s.85-8.72,2.54-12.45c1.69-3.73,4-6.96,6.92-9.72,2.92-2.75,6.43-4.87,10.54-6.35,4.11-1.48,8.53-2.22,13.27-2.22s8.89.74,12.96,2.22c4.06,1.48,7.56,3.6,10.48,6.35,2.92,2.75,5.23,6.01,6.92,9.78,1.69,3.77,2.54,7.9,2.54,12.38s-.85,8.72-2.54,12.45c-1.7,3.73-4,6.92-6.92,9.59s-6.41,4.74-10.48,6.22c-4.07,1.48-8.38,2.22-12.96,2.22s-9.17-.74-13.27-2.22ZM2643.57,313c1.57-1.65,2.75-3.68,3.56-6.1.8-2.41,1.33-5.12,1.59-8.13.25-3,.38-5.91.38-8.7s-.13-5.69-.38-8.7c-.25-3-.78-5.76-1.59-8.26-.81-2.5-2.01-4.55-3.62-6.16-1.61-1.61-3.77-2.41-6.48-2.41-2.97,0-5.25.81-6.86,2.41-1.61,1.61-2.82,3.66-3.62,6.16-.81,2.5-1.33,5.25-1.59,8.26-.25,3.01-.38,5.91-.38,8.7s.13,5.65.38,8.57c.25,2.92.78,5.65,1.59,8.19.8,2.54,2.01,4.62,3.62,6.22,1.61,1.61,3.89,2.41,6.86,2.41,2.79,0,4.97-.83,6.54-2.48Z"/><path d="M2675.9,318.65v-5.21h9.4v-47.12h-9.4v-5.21h10.67c3.47,0,6.37-.06,8.7-.19,2.33-.13,3.79-.65,4.38-1.59h5.33v8.13l.38.25c1.52-2.2,3.53-4.15,6.03-5.84,2.5-1.69,5.35-2.54,8.57-2.54,3.56,0,6.58,1.04,9.08,3.11,2.5,2.08,3.75,4.89,3.75,8.45,0,1.61-.23,3.05-.7,4.32-.47,1.27-1.12,2.33-1.97,3.18-.85.85-1.8,1.52-2.86,2.03-1.06.51-2.22.76-3.49.76-2.37,0-4.3-.7-5.78-2.1-1.48-1.4-2.22-3.28-2.22-5.65,0-1.52.46-2.96,1.4-4.32.93-1.35,1.99-2.24,3.18-2.67-.34-.42-.74-.72-1.21-.89-.47-.17-1-.25-1.59-.25-1.36,0-2.79.51-4.32,1.52s-2.9,2.33-4.13,3.94c-1.23,1.61-2.22,3.35-2.99,5.21-.76,1.86-1.14,3.56-1.14,5.08v32.39h10.42v5.21h-39.5Z"/><path d="M2736.99,318.65v-5.21h9.4v-47.12h-9.4v-5.21h15.5c1.44,0,2.69-.06,3.75-.19,1.06-.13,1.99-.32,2.79-.57.8-.25,1.42-.59,1.84-1.02h5.21v54.11h9.02v5.21h-38.11ZM2749.19,246.69c-1.86-1.65-2.79-3.96-2.79-6.92s.93-5.14,2.79-6.8c1.86-1.65,4.02-2.48,6.48-2.48,2.29,0,4.4.85,6.35,2.54,1.95,1.69,2.92,4.02,2.92,6.99,0,2.79-.97,5.02-2.92,6.67-1.95,1.65-4.11,2.48-6.48,2.48s-4.49-.83-6.35-2.48Z"/><path d="M2795.93,318.21c-3.47-1.57-6.39-3.75-8.76-6.54-2.37-2.79-4.21-6.05-5.53-9.78-1.31-3.73-1.97-7.7-1.97-11.94s.66-7.96,1.97-11.69c1.31-3.73,3.15-6.99,5.53-9.78,2.37-2.79,5.29-5.02,8.76-6.67,3.47-1.65,7.32-2.48,11.56-2.48s7.45.85,10.16,2.54c2.71,1.7,5,3.81,6.86,6.35l.25-.38v-32.9h-9.91v-5.21h11.3c3.3,0,6.1-.06,8.38-.19,2.29-.13,3.73-.65,4.32-1.59h5.46v85.74h9.53v4.95h-9.02c-1.69,0-3.35.02-4.95.06-1.61.04-3.05.13-4.32.25-1.27.13-2.39.32-3.37.57-.97.25-1.63.59-1.97,1.02h-5.46v-8.51l-.38-.25c-.68,1.1-1.55,2.16-2.6,3.18-1.06,1.02-2.29,1.95-3.68,2.79-1.4.85-2.98,1.52-4.76,2.03-1.78.51-3.77.76-5.97.76-4.15,0-7.96-.78-11.43-2.35ZM2815.17,314.08c1.14-.51,2.24-1.23,3.3-2.16,1.06-.93,1.97-2.01,2.73-3.24.76-1.23,1.35-2.52,1.78-3.87.51-1.44.93-2.96,1.27-4.57.34-1.61.51-3.85.51-6.73v-8.76c0-1.1-.04-2.12-.13-3.05-.09-.93-.19-1.78-.32-2.54-.13-.76-.28-1.46-.45-2.1-.17-.63-.38-1.16-.63-1.59-.59-1.52-1.23-2.88-1.91-4.06-.68-1.18-1.52-2.24-2.54-3.18-1.02-.93-2.14-1.69-3.37-2.29-1.23-.59-2.56-.89-4-.89-2.54,0-4.51.7-5.91,2.1-1.4,1.4-2.46,3.24-3.18,5.53-.72,2.29-1.21,4.93-1.46,7.94-.25,3.01-.38,6.16-.38,9.46,0,3.05.13,6.08.38,9.08.25,3.01.74,5.67,1.46,8,.72,2.33,1.8,4.19,3.24,5.59,1.44,1.4,3.43,2.1,5.97,2.1,1.27,0,2.48-.25,3.62-.76Z"/><path d="M2869.09,319.6c-2.12-.64-3.98-1.57-5.59-2.79-1.61-1.23-2.84-2.71-3.68-4.45-.85-1.73-1.27-3.83-1.27-6.29,0-4.06,1.23-7.41,3.68-10.03,2.46-2.62,5.54-4.66,9.27-6.1,3.72-1.44,7.77-2.43,12.13-2.98,4.36-.55,8.36-.83,12-.83v-7.88c0-2.29-.25-4.28-.76-5.97-.51-1.69-1.21-3.11-2.1-4.25-.89-1.14-2.08-2.01-3.56-2.6-1.48-.59-3.24-.89-5.27-.89-2.54,0-4.85.4-6.92,1.21-2.08.81-3.58,1.76-4.51,2.86,1.35.09,2.77.68,4.26,1.78,1.48,1.1,2.22,2.97,2.22,5.59,0,2.29-.83,4.13-2.48,5.53-1.65,1.4-3.75,2.1-6.29,2.1-2.03,0-3.9-.72-5.59-2.16-1.69-1.44-2.54-3.6-2.54-6.48,0-2.2.61-4.25,1.84-6.16,1.23-1.91,2.92-3.56,5.08-4.95,2.16-1.4,4.74-2.5,7.75-3.3,3-.8,6.24-1.21,9.72-1.21,4.15,0,7.96.34,11.43,1.02,3.47.68,6.43,1.86,8.89,3.56,2.46,1.69,4.38,3.94,5.78,6.73,1.4,2.79,2.1,6.27,2.1,10.42v23.37c0,3.64.21,6.16.64,7.56.42,1.4,1.18,2.1,2.29,2.1.93,0,1.76-.46,2.48-1.4.72-.93,1.21-1.99,1.46-3.18l4.83,1.65c-.34,1.19-.83,2.35-1.46,3.49-.64,1.14-1.52,2.16-2.67,3.05-1.14.89-2.62,1.59-4.45,2.1-1.82.51-4.04.76-6.67.76-4.15,0-7.41-.83-9.78-2.48-2.37-1.65-4.02-3.87-4.95-6.67h-.51c-1.78,2.63-4.36,4.81-7.75,6.54-3.39,1.73-7.41,2.6-12.07,2.6-2.54,0-4.87-.32-6.99-.95ZM2887.51,312.3c1.44-.85,2.75-1.91,3.94-3.18,1.19-1.27,2.18-2.71,2.99-4.32.8-1.61,1.21-3.22,1.21-4.83v-8.64c-1.86,0-3.92.17-6.16.51-2.24.34-4.28,1.02-6.1,2.03-1.82,1.02-3.39,2.35-4.7,4-1.31,1.65-1.97,3.79-1.97,6.41,0,3.3.63,5.67,1.91,7.11,1.27,1.44,2.79,2.16,4.57,2.16,1.44,0,2.88-.42,4.32-1.27Z"/></svg>